<svg width="60" height="33" viewBox="0 0 60 33" fill="none" xmlns="http://www.w3.org/2000/svg">
<g clip-path="url(#clip0_6701_37)">
<path fill-rule="evenodd" clip-rule="evenodd" d="M52.0222 20.4703C42.2564 10.3293 32.3028 0 29.1099 0C26.1051 0 16.1515 10.3293 6.38566 20.4703H6.19796C6.19796 20.6586 6.38566 20.6586 6.38566 20.6586H6.57369C8.07593 19.7198 15.0247 14.461 17.8418 14.461C18.781 14.461 20.2832 15.0244 21.9735 15.9632C19.7198 18.2172 17.8418 20.2829 17.6541 20.4706C17.6541 20.6589 17.6541 20.6589 17.8418 20.6589C18.781 20.0952 21.0346 18.4049 23.476 16.9023C26.1048 18.5926 28.7345 20.4706 29.1096 20.6589H29.2976C29.6734 20.4706 32.3025 18.5926 34.9319 16.9023C37.3733 18.4049 39.6269 20.0952 40.5654 20.6589C40.5654 20.6589 40.7535 20.6589 40.7535 20.4706C40.5654 20.2829 38.4998 18.2172 36.2464 15.9632C37.9367 15.0247 39.6269 14.461 40.5654 14.461C43.3829 14.461 50.3316 19.7198 51.8339 20.6586H52.0219C52.0219 20.6586 52.2096 20.6586 52.2096 20.4703H52.0222V20.4703ZM29.1096 3.38053C30.4245 3.38053 32.4905 4.31968 34.3684 5.4462C33.0539 5.82192 31.1759 7.32449 29.1096 9.20246C27.2317 7.32449 25.166 5.82192 24.0391 5.4462C25.9171 4.31968 27.9831 3.38053 29.1096 3.38053V3.38053ZM23.476 14.6487C21.5981 12.9584 19.5321 11.4561 18.2172 11.0804C20.2832 9.76588 22.1612 8.82674 23.476 8.82674C24.4149 8.82674 26.1048 9.57786 27.7954 10.517C26.1048 12.0196 23.6637 14.6487 23.476 14.6487ZM29.1096 20.2826C28.7342 19.9072 27.0439 18.0292 24.978 15.9629C26.6682 15.0244 28.1708 14.4606 29.1096 14.4606C30.2365 14.4606 31.739 15.0241 33.4293 15.9629C31.3636 18.0295 29.6737 19.9075 29.1096 20.2826ZM34.9322 14.6487C34.7442 14.6487 32.3028 12.0196 30.6125 10.517C32.3028 9.57786 33.9934 8.82674 34.9322 8.82674C36.059 8.82674 38.1247 9.76588 40.1907 11.0804C38.8758 11.4561 36.8101 12.9584 34.9322 14.6487ZM6.19796 30.8002H2.06631L4.13198 27.4197L6.19796 30.8002ZM0 32.6778H0.939144L1.69027 31.363H6.57337L7.32449 32.6778H8.07561L4.6954 26.6682H3.56855L0 32.6778V32.6778ZM15.5881 29.6727V27.4194H19.3444C20.4709 27.4194 20.6589 27.607 20.6589 28.1708V28.7339C20.6589 29.4853 20.2832 29.6727 19.5321 29.6727H15.5881V29.6727ZM14.837 32.6778H15.5881V30.2365H19.5321C20.2835 30.2365 20.6589 30.4242 20.6589 31.363V32.6778H21.41V31.1753C21.41 30.6122 21.2223 30.2365 20.4709 30.0488C21.0346 29.8604 21.5981 29.6727 21.5981 28.9222V28.3585C21.5981 27.232 21.2223 26.6682 19.5321 26.6682H14.837V32.6778V32.6778Z" fill="#3B5998"/>
<path d="M28.7341 32.6776H29.4852V26.668H28.7341V32.6776Z" fill="#3B5998"/>
<path fill-rule="evenodd" clip-rule="evenodd" d="M43.006 31.1755C43.006 31.7393 42.8183 31.927 42.0672 31.927H37.7479V29.8607H41.8795C42.631 29.8607 43.006 30.049 43.006 30.8001V31.1755ZM42.8183 28.5465C42.8183 29.1102 42.2549 29.2979 41.8795 29.2979H37.7479V27.4199H41.8795C42.2552 27.4199 42.8183 27.4199 42.8183 27.983V28.5465ZM36.9961 32.6781H42.0669C43.0057 32.6781 43.7575 32.3027 43.7575 31.3632V30.6124C43.7575 29.8607 43.1941 29.4853 42.6306 29.4853C43.3821 29.4853 43.5695 28.9222 43.5695 28.5465V27.9827C43.5695 27.4196 43.1941 26.6685 42.0669 26.6685H36.9961V32.6781V32.6781ZM56.3401 30.8005H52.3965L54.4625 27.4199L56.3401 30.8005ZM50.3305 32.6781H51.2693L52.0208 31.3632H56.7159L57.467 32.6781H58.4061L54.8379 26.6685H53.8987L50.3305 32.6781V32.6781ZM58.0304 27.4199C58.0304 27.0445 58.4061 26.6685 58.7818 26.6685C59.3449 26.6685 59.5333 27.0445 59.5333 27.4199C59.5333 27.983 59.3449 28.3588 58.7818 28.3588C58.4061 28.3588 58.0304 27.983 58.0304 27.4199ZM57.8427 27.4199C57.8427 27.983 58.2181 28.5465 58.7815 28.5465C59.3446 28.5465 59.7203 27.9827 59.7203 27.4199C59.7203 27.0445 59.3443 26.4805 58.7815 26.4805C58.2181 26.4801 57.8427 27.0445 57.8427 27.4199ZM58.4061 27.983H58.5938V27.6076H58.7818L59.1572 27.983H59.3449L58.9695 27.6076C59.1572 27.6076 59.3449 27.4199 59.3449 27.2322C59.3449 27.0445 59.1572 26.8562 58.7818 26.8562H58.4061V27.983V27.983ZM58.5938 27.4199V27.0445H58.7818C58.9695 27.0445 59.1572 27.0445 59.1572 27.2322C59.1572 27.4199 58.9695 27.4199 58.7818 27.4199H58.5938Z" fill="#3B5998"/>
</g>
<defs>
<clipPath id="clip0_6701_37">
<rect width="59.72" height="32.68" fill="white"/>
</clipPath>
</defs>
</svg>
